<svg width="34" height="38" viewBox="0 0 34 38" fill="none" xmlns="http://www.w3.org/2000/svg">
<g filter="url(#filter0_d_45_3)">
<path d="M4.50962 7.78867L17 0.57735L29.4904 7.78867V22.2113L17 29.4227L4.50962 22.2113V7.78867Z" stroke="#9F6B08"/>
<path d="M22.3536 15.3536C22.5488 15.1583 22.5488 14.8417 22.3536 14.6464L19.1716 11.4645C18.9763 11.2692 18.6597 11.2692 18.4645 11.4645C18.2692 11.6597 18.2692 11.9763 18.4645 12.1716L21.2929 15L18.4645 17.8284C18.2692 18.0237 18.2692 18.3403 18.4645 18.5355C18.6597 18.7308 18.9763 18.7308 19.1716 18.5355L22.3536 15.3536ZM12 15.5H22V14.5H12V15.5Z" fill="#9F6B08"/>
</g>
<defs>
<filter id="filter0_d_45_3" x="0.00976562" y="0" width="33.9805" height="38" filterUnits="userSpaceOnUse" color-interpolation-filters="sRGB">
<feFlood flood-opacity="0" result="BackgroundImageFix"/>
<feColorMatrix in="SourceAlpha" type="matrix" values="0 0 0 0 0 0 0 0 0 0 0 0 0 0 0 0 0 0 127 0" result="hardAlpha"/>
<feOffset dy="4"/>
<feGaussianBlur stdDeviation="2"/>
<feComposite in2="hardAlpha" operator="out"/>
<feColorMatrix type="matrix" values="0 0 0 0 0 0 0 0 0 0 0 0 0 0 0 0 0 0 0.25 0"/>
<feBlend mode="normal" in2="BackgroundImageFix" result="effect1_dropShadow_45_3"/>
<feBlend mode="normal" in="SourceGraphic" in2="effect1_dropShadow_45_3" result="shape"/>
</filter>
</defs>
</svg>
